<?xml version="1.0" encoding="utf-8"?>
<!-- Generator: Adobe Illustrator 18.0.0, SVG Export Plug-In . SVG Version: 6.00 Build 0)  -->
<!DOCTYPE svg PUBLIC "-//W3C//DTD SVG 1.1//EN" "http://www.w3.org/Graphics/SVG/1.1/DTD/svg11.dtd">
<svg version="1.1" id="图层_1" xmlns="http://www.w3.org/2000/svg" xmlns:xlink="http://www.w3.org/1999/xlink" x="0px" y="0px"
	 viewBox="0 0 16 16" enable-background="new 0 0 16 16" xml:space="preserve">
<g>
	<path fill="#828282" d="M0.4,9.9c0.7-2.6,2.5-4.3,4.7-5.6C5.7,4,6.2,3.8,6.9,3.9C7.5,3.9,8,4.3,8,5c0,0.4-0.1,0.8-0.1,1.2
		c0.2,0,0.4-0.1,0.5-0.1C9,5.8,9.8,5.6,10.6,5.7c1,0.1,1.4,0.7,1.1,1.6c-0.2,0.6-0.2,0.6,0.4,0.9c0.8,0.3,1.4,0.8,1.5,1.7
		c0.1,0.6-0.1,1.1-0.4,1.6c-0.8,1.3-2,2-3.3,2.5c-0.7,0.2-1.4,0.3-2.2,0.5c-0.6,0-1.3,0-1.9,0c-0.4-0.1-0.8-0.1-1.2-0.2
		C2.7,13.7,1,13,0.4,10.9C0.4,10.6,0.4,10.2,0.4,9.9z M6.1,13.6c1.4,0,2.8-0.4,3.9-1.3c0.6-0.5,1.1-1.2,1.1-2c0-1-0.6-1.6-1.4-2.1
		C8.4,7.5,7,7.4,5.6,7.6C4.4,7.9,3.4,8.3,2.6,9.2c-1,1.1-0.9,2.4,0.3,3.3C3.8,13.3,4.9,13.5,6.1,13.6z"/>
	<path fill="#828282" d="M12.1,2.1c0.6,0.2,1.2,0.4,1.7,0.7c1.4,0.9,2.1,2.8,1.6,4.4c-0.1,0.4-0.4,0.6-0.8,0.5
		c-0.3-0.1-0.5-0.4-0.3-0.8c0.2-0.9,0.1-1.7-0.4-2.4c-0.7-1-1.6-1.3-2.8-1.2c-0.5,0.1-0.8-0.1-0.9-0.4c-0.1-0.4,0.1-0.6,0.6-0.7
		c0,0,0.1,0,0.1-0.1C11.4,2.1,11.8,2.1,12.1,2.1z"/>
	<path fill="#828282" d="M13.6,6.1c0,0.2-0.1,0.4-0.1,0.6c-0.1,0.3-0.3,0.4-0.6,0.3c-0.3-0.1-0.4-0.3-0.4-0.6c0-0.1,0-0.2,0-0.2
		c0.1-0.7-0.4-1.2-1.1-1.1c-0.4,0-0.6-0.1-0.7-0.4c0-0.3,0.2-0.5,0.5-0.6C12.5,4.1,13.5,4.9,13.6,6.1z"/>
	<path fill="#828282" d="M5.9,13c-1.1,0-2-0.7-2.2-1.6c-0.1-0.6,0.1-1.1,0.4-1.5c0.7-1,2.2-1.4,3.3-0.9C8.7,9.5,9,11,8,12.1
		C7.5,12.6,6.7,13,5.9,13z M5.3,12c0.5,0,0.9-0.4,0.9-0.8c0-0.4-0.3-0.6-0.7-0.7c-0.5,0-0.9,0.4-1,0.8C4.6,11.7,4.9,12,5.3,12z
		 M6.7,10c-0.2,0.2-0.3,0.3-0.3,0.5c0,0.1,0.2,0.3,0.2,0.2c0.1,0,0.3-0.2,0.3-0.3C7,10.4,6.8,10.2,6.7,10z"/>
</g>
</svg>
